<?xml version="1.0" standalone="no"?>
<!DOCTYPE svg PUBLIC "-//W3C//DTD SVG 20010904//EN"
 "http://www.w3.org/TR/2001/REC-SVG-20010904/DTD/svg10.dtd">
<svg version="1.0" xmlns="http://www.w3.org/2000/svg"
 width="416.000000pt" height="342.000000pt" viewBox="0 0 416.000000 342.000000"
 preserveAspectRatio="xMidYMid meet">

<g transform="translate(0.000000,342.000000) scale(0.100000,-0.100000)"
fill="rgba(255, 255, 255, 0.9)" stroke="none">
<path d="M64 3406 c-70 -31 -64 116 -64 -1697 0 -1633 0 -1636 20 -1662 12
-15 38 -31 58 -37 57 -15 3956 -13 4001 3 19 7 44 25 55 40 l21 28 0 1635 0
1634 -33 32 -32 33 -1998 2 c-1668 2 -2002 0 -2028 -11z m4037 -55 c19 -23 19
-63 19 -1632 0 -1157 -3 -1615 -11 -1632 -6 -14 -22 -30 -36 -36 -35 -16
-3962 -16 -3997 0 -14 7 -30 25 -36 42 -14 42 -14 3192 1 3234 5 17 20 35 32
41 15 8 622 10 2015 9 l1994 -2 19 -24z"/>
<path d="M2810 2926 c0 -2 -9 -48 -20 -101 -23 -114 -25 -135 -7 -135 8 0 19
35 30 99 10 54 21 108 24 120 4 15 1 21 -11 21 -9 0 -16 -2 -16 -4z"/>
<path d="M2880 2920 c0 -5 7 -10 15 -10 8 0 15 5 15 10 0 6 -7 10 -15 10 -8 0
-15 -4 -15 -10z"/>
<path d="M907 2829 c-10 -52 -21 -104 -24 -116 -5 -22 -2 -23 56 -23 102 0
161 46 161 126 0 68 -31 97 -112 102 l-64 4 -17 -93z m134 48 c38 -24 39 -89
1 -127 -26 -26 -105 -50 -119 -36 -3 3 2 46 12 96 l18 92 35 -7 c19 -3 43 -11
53 -18z"/>
<path d="M1804 2838 c10 -126 16 -148 36 -148 12 0 31 29 62 96 l45 96 8 -96
c6 -85 9 -96 26 -96 20 0 34 23 94 156 26 57 30 74 19 74 -9 0 -33 -38 -62
-97 -28 -60 -47 -90 -49 -78 -1 11 -5 55 -8 98 -6 67 -9 77 -26 77 -10 0 -19
-4 -19 -9 0 -15 -83 -186 -86 -176 -1 6 -6 49 -9 98 -5 69 -10 87 -22 87 -13
0 -15 -12 -9 -82z"/>
<path d="M1355 2890 c-3 -11 -13 -20 -21 -20 -15 0 -19 -16 -6 -24 5 -3 4 -31
-2 -64 -5 -32 -6 -66 -3 -75 7 -18 57 -24 57 -7 0 6 -7 10 -16 10 -14 0 -16 8
-10 54 8 68 14 86 32 86 8 0 14 5 14 10 0 6 -6 10 -14 10 -9 0 -12 7 -9 20 3
11 1 20 -5 20 -6 0 -14 -9 -17 -20z"/>
<path d="M1178 2863 c-17 -4 -32 -32 -23 -41 3 -3 18 1 33 10 19 12 32 14 45
7 32 -19 19 -36 -33 -43 -61 -8 -90 -41 -72 -81 9 -19 19 -25 45 -25 18 0 39
6 46 13 11 10 14 10 18 0 6 -15 53 -18 53 -3 0 6 -5 10 -11 10 -7 0 -8 20 -4
63 6 52 4 67 -10 80 -16 16 -50 20 -87 10z m62 -102 c0 -38 -71 -68 -84 -35
-8 20 0 33 28 44 36 15 56 11 56 -9z"/>
<path d="M1449 2851 c-33 -26 -16 -39 22 -17 24 14 33 15 44 6 28 -23 16 -37
-35 -44 -61 -8 -90 -41 -72 -81 14 -30 65 -34 94 -8 17 15 18 15 18 0 0 -11 8
-17 25 -17 14 0 25 5 25 10 0 6 -5 10 -11 10 -7 0 -8 23 -3 69 6 63 5 70 -14
80 -31 16 -67 13 -93 -8z m69 -93 c-4 -32 -51 -57 -72 -39 -20 17 -5 48 26 54
45 9 49 7 46 -15z"/>
<path d="M2125 2858 c-5 -13 -35 -155 -35 -164 0 -2 6 -4 14 -4 16 0 20 11 31
75 8 46 20 64 52 76 13 5 23 13 23 19 0 15 -27 12 -44 -6 -15 -14 -16 -14 -16
0 0 19 -19 21 -25 4z"/>
<path d="M2252 2854 c-27 -19 -28 -34 -2 -34 11 0 20 4 20 9 0 13 27 21 45 15
24 -10 19 -44 -7 -45 -40 -1 -91 -23 -98 -44 -13 -35 6 -65 39 -65 16 0 36 3
45 6 27 10 18 22 -16 20 -29 -1 -33 2 -33 23 0 19 7 27 30 33 42 11 59 4 45
-22 -8 -14 -8 -26 0 -40 11 -20 50 -28 50 -10 0 6 -4 10 -10 10 -5 0 -7 26 -3
66 5 58 4 69 -12 80 -25 18 -65 18 -93 -2z"/>
<path d="M2410 2803 c-6 -38 -14 -78 -17 -90 -4 -16 -1 -23 10 -23 11 0 19 17
27 56 13 63 48 108 76 97 14 -5 16 -15 11 -63 -4 -31 -9 -65 -13 -74 -5 -14
-3 -17 12 -14 15 2 22 18 32 73 12 67 12 71 -9 88 -26 21 -38 21 -67 1 -20
-14 -22 -14 -22 0 0 9 -6 16 -14 16 -9 0 -18 -22 -26 -67z"/>
<path d="M2633 2860 c-43 -17 -66 -104 -39 -145 18 -28 63 -34 85 -12 10 10
12 7 9 -13 -2 -14 -14 -31 -30 -39 -24 -14 -28 -14 -45 1 -11 11 -24 14 -32 9
-19 -12 25 -41 62 -41 49 0 72 35 92 143 18 95 15 128 -8 96 -10 -14 -14 -14
-25 -3 -14 16 -37 17 -69 4z m62 -27 c36 -36 -8 -133 -53 -119 -11 4 -22 15
-24 24 -7 29 10 86 28 99 23 17 29 16 49 -4z"/>
<path d="M2860 2803 c-6 -38 -14 -78 -17 -90 -3 -16 -1 -23 10 -23 10 0 19 24
31 83 19 99 19 97 2 97 -9 0 -18 -22 -26 -67z"/>
<path d="M2945 2858 c-2 -7 -11 -48 -19 -91 -13 -71 -12 -78 2 -75 11 2 20 21
27 53 15 73 31 97 63 93 30 -3 30 -6 17 -95 -6 -43 -5 -53 7 -53 10 0 19 21
27 71 12 64 11 72 -5 90 -20 23 -30 23 -66 5 -24 -13 -28 -13 -28 0 0 17 -19
19 -25 2z"/>
<path d="M3159 2863 c-39 -10 -67 -131 -37 -161 15 -15 53 -16 78 -2 18 9 18
8 9 -19 -13 -36 -53 -49 -79 -26 -14 12 -20 13 -26 4 -10 -16 23 -39 57 -39
49 0 76 36 94 125 9 44 19 90 22 103 4 15 1 22 -10 22 -8 0 -17 -5 -19 -11 -3
-9 -9 -9 -25 0 -22 11 -35 12 -64 4z m71 -63 c0 -63 -32 -100 -74 -84 -32 12
-13 118 23 127 29 6 51 -12 51 -43z"/>
<path d="M1825 2213 c-268 -22 -461 -89 -562 -196 -132 -139 -72 -277 167
-385 342 -154 931 -100 1137 104 201 200 -49 429 -518 473 -111 11 -141 11
-224 4z"/>
<path d="M1191 1635 c0 -130 10 -173 52 -229 110 -144 470 -238 795 -208 295
27 518 125 581 255 18 37 21 62 21 173 -1 117 -2 126 -14 98 -48 -109 -201
-197 -429 -245 -124 -27 -396 -32 -517 -10 -225 40 -400 129 -460 235 l-30 51
1 -120z"/>
<path d="M1192 1270 c3 -126 5 -138 30 -182 34 -56 81 -95 177 -143 125 -63
338 -105 528 -105 l79 0 54 56 c61 62 91 81 135 85 64 5 86 -2 125 -37 l40
-36 72 36 c70 35 75 40 141 139 l67 103 0 109 0 110 -21 -43 c-65 -130 -288
-228 -581 -254 -222 -21 -459 14 -623 92 -109 51 -159 90 -195 152 l-31 53 3
-135z"/>
<path d="M2644 988 c-108 -161 -201 -297 -206 -303 -5 -6 -46 29 -106 88 -59
58 -105 97 -118 97 -25 0 -114 -89 -114 -115 0 -13 61 -81 158 -178 137 -137
163 -158 191 -159 22 -1 40 7 55 23 13 13 95 130 182 259 87 129 194 287 237
352 93 135 93 146 17 196 -87 56 -74 68 -296 -260z"/>
<path d="M1192 920 c3 -116 7 -141 25 -176 83 -158 425 -268 773 -250 190 10
185 5 97 95 -79 80 -97 106 -97 140 0 19 -6 21 -70 21 -182 0 -395 43 -519
104 -97 48 -146 88 -182 150 l-30 51 3 -135z"/>
</g>
</svg>
