<?xml version="1.0" standalone="no"?>
<!DOCTYPE svg PUBLIC "-//W3C//DTD SVG 20010904//EN"
 "http://www.w3.org/TR/2001/REC-SVG-20010904/DTD/svg10.dtd">
<svg version="1.0" xmlns="http://www.w3.org/2000/svg"
 width="292.000000pt" height="307.000000pt" viewBox="0 0 292.000000 307.000000"
 preserveAspectRatio="xMidYMid meet">

<g transform="translate(0.000000,307.000000) scale(0.100000,-0.100000)"
fill="rgba(255,255,255,0.9)" stroke="none">
<path d="M1405 2393 c-92 -55 -369 -187 -478 -228 -54 -20 -160 -54 -234 -75
-75 -21 -139 -44 -143 -50 -11 -17 -3 -448 9 -535 47 -320 131 -568 265 -775
136 -210 369 -399 599 -485 l48 -18 69 27 c38 15 107 50 152 77 70 42 86 48
106 40 20 -10 22 -9 17 12 -5 19 5 32 59 75 240 195 417 530 482 911 13 79 29
193 34 255 10 113 14 336 5 336 -2 0 -15 -5 -28 -11 -24 -11 -24 -12 -30 -212
-6 -201 -20 -324 -55 -467 l-17 -75 -50 -8 c-56 -8 -190 -34 -220 -43 -19 -5
-20 0 -20 103 1 59 4 117 8 128 9 27 54 53 106 61 l42 7 -43 24 c-24 13 -58
39 -76 56 -36 35 -77 95 -69 103 2 3 24 0 48 -5 71 -16 192 -24 217 -14 21 8
15 13 -60 51 -46 24 -96 54 -113 67 l-29 24 75 -23 c145 -45 229 -42 137 5
-54 27 -154 95 -164 110 -5 9 6 10 39 5 92 -14 207 -7 207 12 0 4 -26 15 -57
26 -31 10 -100 38 -152 62 l-96 44 55 -7 c30 -5 98 -8 150 -8 76 0 104 5 143
22 50 23 55 43 11 43 -52 0 -236 33 -223 40 8 4 48 10 89 14 57 4 91 14 138
38 57 29 105 78 91 92 -3 3 -48 -3 -100 -14 -52 -10 -119 -21 -149 -24 l-55
-6 55 14 c30 8 78 25 105 38 l50 23 -324 3 c-179 1 -328 -1 -332 -5 -8 -8 -94
-221 -199 -488 -79 -203 -112 -266 -152 -289 -27 -17 -45 -18 -178 -12 -163 8
-187 3 -251 -50 -19 -16 -51 -37 -71 -46 -40 -19 -118 -84 -118 -100 0 -5 10
-6 21 -3 15 5 19 4 15 -4 -9 -14 -4 -14 69 4 88 21 96 19 171 -32 38 -26 100
-59 139 -73 38 -14 97 -47 130 -73 33 -25 97 -64 142 -86 63 -31 88 -50 111
-83 33 -47 90 -103 138 -136 31 -21 31 -23 37 -124 3 -62 14 -129 26 -168 l21
-65 -23 -17 c-31 -25 -237 -128 -255 -128 -24 0 -176 75 -249 123 -188 123
-332 291 -439 512 -96 198 -146 392 -174 670 -13 124 -19 409 -10 419 4 3 66
23 138 45 240 72 472 169 641 266 43 25 83 45 90 45 6 0 43 -18 82 -40 39 -22
75 -40 80 -40 5 0 13 10 18 22 7 20 -1 27 -86 75 -51 29 -94 53 -96 53 -1 -1
-29 -17 -62 -37z m-395 -1014 c0 -23 -28 -26 -37 -3 -6 16 15 37 29 28 4 -3 8
-14 8 -25z m1220 -284 c-7 -8 -20 -15 -28 -15 -13 0 -12 3 4 15 25 19 40 19
24 0z m-395 -522 c12 -60 11 -70 -3 -86 -26 -29 -33 -5 -26 82 4 45 9 79 12
77 2 -3 10 -36 17 -73z"/>
</g>
</svg>
