<?xml version="1.0" standalone="no"?>
<!DOCTYPE svg PUBLIC "-//W3C//DTD SVG 20010904//EN"
 "http://www.w3.org/TR/2001/REC-SVG-20010904/DTD/svg10.dtd">
<svg version="1.0" xmlns="http://www.w3.org/2000/svg"
 width="453.000000pt" height="342.000000pt" viewBox="0 0 453.000000 342.000000"
 preserveAspectRatio="xMidYMid meet">

<g transform="translate(0.000000,342.000000) scale(0.100000,-0.100000)"
fill="rgba(255, 255, 255, 0.9)" stroke="none">
<path d="M73 3413 c-12 -2 -33 -16 -47 -30 l-26 -26 0 -1646 c0 -1632 0 -1647
20 -1669 11 -11 37 -26 57 -31 51 -15 4313 -15 4364 -1 19 6 46 22 60 36 l24
26 3 1625 c2 1431 0 1628 -13 1656 -32 67 161 62 -2240 63 -1199 1 -2190 -1
-2202 -3z m4398 -62 c19 -23 19 -63 19 -1636 0 -887 -3 -1621 -6 -1630 -18
-47 85 -45 -2224 -45 -2309 0 -2206 -2 -2224 45 -3 9 -6 743 -6 1631 l0 1615
25 25 24 24 2186 -2 2187 -3 19 -24z"/>
<path d="M1610 2926 c0 -2 -9 -48 -20 -101 -11 -53 -20 -106 -20 -117 0 -37
24 -12 35 38 17 75 32 96 63 92 30 -3 32 -14 18 -100 -7 -39 -6 -48 6 -48 10
0 19 21 28 68 19 103 -4 131 -82 98 -15 -7 -16 -4 -8 26 13 44 13 48 -5 48 -8
0 -15 -2 -15 -4z"/>
<path d="M1795 2920 c-3 -5 1 -10 9 -10 8 0 18 5 21 10 3 6 -1 10 -9 10 -8 0
-18 -4 -21 -10z"/>
<path d="M3200 2920 c0 -5 7 -10 15 -10 8 0 15 5 15 10 0 6 -7 10 -15 10 -8 0
-15 -4 -15 -10z"/>
<path d="M956 2818 c-10 -57 -21 -109 -23 -115 -3 -7 2 -13 10 -13 15 0 27 39
43 141 9 53 17 36 34 -63 8 -50 17 -78 25 -78 7 0 35 38 61 85 26 47 49 83 52
81 2 -3 -3 -39 -12 -81 -19 -93 -19 -85 -2 -85 9 0 20 34 35 108 26 131 26
124 -1 120 -17 -2 -36 -27 -74 -96 -57 -104 -52 -105 -75 26 -11 63 -15 72
-33 72 -19 0 -23 -11 -40 -102z"/>
<path d="M2326 2833 c-9 -49 -19 -100 -22 -115 l-6 -28 76 0 c44 0 76 4 76 10
0 6 -25 10 -55 10 -64 0 -64 1 -40 110 18 82 18 100 1 100 -9 0 -19 -28 -30
-87z"/>
<path d="M1263 2860 c-24 -10 -32 -40 -10 -40 6 0 20 7 31 15 13 10 24 11 37
4 35 -18 22 -36 -31 -43 -61 -8 -90 -41 -72 -81 14 -30 65 -34 94 -8 17 15 18
15 18 0 0 -11 8 -17 25 -17 14 0 25 5 25 10 0 6 -5 10 -11 10 -8 0 -9 19 -5
64 6 52 4 66 -9 80 -18 17 -57 20 -92 6z m67 -95 c0 -21 -36 -55 -59 -55 -20
0 -35 25 -25 42 16 25 84 36 84 13z"/>
<path d="M1457 2862 c-27 -11 -57 -63 -57 -98 0 -70 73 -102 120 -52 26 28 6
44 -21 17 -25 -25 -46 -24 -60 2 -15 29 -3 85 24 104 28 20 32 19 56 -7 19
-20 21 -20 27 -3 13 33 -41 55 -89 37z"/>
<path d="M1785 2858 c-2 -7 -9 -40 -15 -73 -6 -33 -14 -68 -16 -77 -4 -12 0
-18 10 -18 9 0 18 10 20 23 16 73 26 130 26 142 0 18 -19 20 -25 3z"/>
<path d="M1856 2853 c-7 -25 -26 -134 -26 -150 0 -7 6 -13 14 -13 9 0 16 17
21 47 11 73 31 105 63 101 30 -3 32 -14 18 -100 -6 -38 -4 -48 7 -48 14 0 37
85 37 136 0 32 -33 48 -70 35 -18 -6 -32 -6 -35 0 -10 14 -23 11 -29 -8z"/>
<path d="M2070 2857 c-31 -16 -50 -52 -50 -99 0 -47 21 -68 69 -68 38 0 83 31
63 44 -5 3 -15 -1 -22 -9 -25 -31 -80 -12 -80 27 0 15 9 18 65 18 l65 0 0 30
c0 57 -54 85 -110 57z m80 -47 c0 -17 -7 -20 -46 -20 -38 0 -45 3 -42 17 8 44
88 47 88 3z"/>
<path d="M2544 2860 c-12 -5 -29 -19 -38 -32 -21 -29 -21 -102 0 -122 23 -24
87 -21 110 6 19 21 19 21 -6 13 -14 -4 -38 -8 -55 -9 -26 -1 -30 3 -33 27 l-3
27 67 0 67 0 -6 37 c-10 57 -47 76 -103 53z m76 -50 c0 -17 -7 -20 -46 -20
-38 0 -45 3 -42 17 8 44 88 47 88 3z"/>
<path d="M2719 2851 c-33 -26 -16 -39 22 -17 24 14 33 15 44 6 28 -23 16 -37
-35 -44 -38 -5 -54 -13 -66 -32 -38 -58 35 -105 89 -57 15 15 17 15 17 0 0
-11 8 -17 25 -17 14 0 25 5 25 10 0 6 -5 10 -11 10 -7 0 -8 23 -3 69 6 63 5
70 -14 80 -31 16 -67 13 -93 -8z m71 -90 c0 -22 -35 -51 -61 -51 -36 0 -27 49
11 63 32 11 50 7 50 -12z"/>
<path d="M2881 2818 c-24 -121 -24 -128 -8 -128 11 0 18 14 23 48 9 63 30 102
54 102 11 0 20 7 20 15 0 18 -21 20 -38 3 -9 -9 -12 -9 -12 0 0 7 -6 12 -14
12 -10 0 -18 -18 -25 -52z"/>
<path d="M2986 2788 c-19 -100 -19 -98 -2 -98 10 0 19 20 27 60 12 64 45 105
76 93 12 -5 14 -16 9 -57 -3 -28 -9 -61 -12 -73 -5 -17 -2 -23 9 -23 19 0 27
21 34 96 5 57 4 63 -16 74 -16 8 -31 9 -52 1 -18 -6 -29 -6 -29 0 0 5 -6 9
-14 9 -9 0 -19 -28 -30 -82z"/>
<path d="M3181 2820 c-23 -106 -24 -130 -9 -130 10 0 18 21 27 68 7 37 15 77
18 90 4 15 1 22 -10 22 -10 0 -19 -16 -26 -50z"/>
<path d="M3265 2858 c-5 -13 -35 -155 -35 -164 0 -2 7 -4 15 -4 8 0 17 11 20
25 3 14 8 37 11 53 9 45 32 72 61 72 26 0 26 -1 20 -58 -4 -32 -9 -67 -13 -76
-5 -14 -3 -17 11 -14 15 2 22 19 32 73 13 67 12 71 -8 88 -26 21 -38 21 -67 1
-20 -14 -22 -14 -22 0 0 19 -19 21 -25 4z"/>
<path d="M3473 2860 c-42 -17 -65 -105 -38 -146 17 -27 62 -33 84 -11 10 10
12 7 9 -13 -2 -14 -14 -31 -30 -39 -24 -14 -28 -14 -45 1 -11 11 -24 14 -32 9
-19 -12 25 -41 62 -41 49 0 72 35 92 143 18 95 15 128 -8 96 -10 -14 -14 -14
-25 -3 -14 16 -37 17 -69 4z m62 -27 c33 -32 -2 -123 -47 -123 -39 0 -40 99
-2 127 23 17 29 16 49 -4z"/>
<path d="M1944 2252 c-46 -22 -78 -58 -94 -108 -10 -29 -16 -34 -44 -34 -84 0
-180 -90 -192 -179 -6 -46 -8 -49 -45 -60 -51 -15 -103 -61 -128 -115 -24 -48
-27 -134 -7 -181 12 -28 11 -30 -33 -60 -127 -85 -149 -270 -44 -385 18 -21
46 -43 62 -49 28 -12 28 -13 15 -49 -42 -119 19 -258 129 -295 38 -12 42 -17
52 -65 23 -100 92 -165 185 -174 31 -3 38 -9 56 -48 38 -81 112 -124 198 -114
47 6 72 18 109 53 63 58 60 5 59 915 -1 790 -2 830 -20 865 -44 86 -167 125
-258 83z m145 -60 c65 -35 71 -61 71 -294 l0 -208 -80 0 -80 0 0 49 c0 42 5
54 30 79 41 42 41 92 1 133 -41 41 -91 40 -133 -1 -27 -27 -30 -36 -25 -73 4
-29 14 -48 31 -62 22 -18 26 -29 26 -73 l0 -52 -81 0 c-77 0 -81 1 -106 30
-20 24 -32 30 -66 30 -85 0 -129 -93 -73 -153 45 -48 116 -44 151 9 15 24 16
24 210 24 l195 0 0 -85 0 -85 -240 0 -240 0 -1 -42 c-1 -24 -2 -74 -3 -111 -1
-49 -5 -72 -16 -80 -54 -41 -63 -100 -24 -146 22 -26 33 -31 70 -31 61 0 94
32 94 90 0 33 -6 48 -30 72 -28 28 -30 34 -30 109 l0 79 210 0 210 0 0 -80 0
-79 -142 -3 -143 -3 -3 -127 c-3 -126 -3 -127 -32 -157 -42 -42 -42 -101 -1
-140 26 -24 30 -37 33 -87 l3 -59 143 -3 142 -3 0 -75 c0 -123 -41 -184 -124
-184 -73 0 -123 44 -135 117 l-6 38 -65 6 c-36 3 -75 12 -88 20 -41 25 -64 74
-63 134 0 59 -4 64 -52 72 -79 12 -134 66 -144 142 -4 31 1 53 21 94 14 30 26
59 26 66 0 6 -24 22 -52 35 -61 27 -91 56 -113 108 -44 107 12 217 133 259 38
13 42 37 11 78 -64 87 -7 229 100 247 72 12 73 13 69 52 -13 110 59 185 171
179 l45 -2 7 42 c18 103 104 150 188 105z m-95 -295 c13 -21 -15 -53 -38 -44
-26 10 -31 38 -11 54 22 16 35 13 49 -10z m-290 -222 c9 -24 -4 -45 -29 -45
-27 0 -40 26 -24 46 15 18 45 18 53 -1z m31 -515 c11 -18 -6 -50 -26 -50 -22
0 -34 22 -25 45 6 17 42 20 51 5z m425 -215 l0 -225 -115 0 -115 0 0 33 c0 25
7 39 29 55 52 38 50 123 -5 152 -23 13 -24 18 -24 112 l0 98 115 0 115 0 0
-225z m-232 -69 c-4 -26 -37 -28 -52 -3 -9 15 -7 21 8 32 24 18 48 2 44 -29z"/>
<path d="M1448 1333 c-23 -4 -28 -9 -28 -34 0 -26 3 -29 30 -29 28 0 30 3 30
35 0 19 -1 34 -2 34 -2 -1 -15 -4 -30 -6z"/>
<path d="M1610 915 c0 -32 2 -35 30 -35 28 0 30 3 30 35 0 32 -2 35 -30 35
-28 0 -30 -3 -30 -35z"/>
<path d="M2405 2256 c-45 -20 -90 -68 -103 -113 -9 -30 -12 -251 -12 -849 0
-769 1 -811 19 -850 10 -23 34 -53 52 -67 103 -77 239 -46 294 68 25 51 30 55
62 55 39 0 99 28 130 62 29 30 53 89 53 128 0 20 6 32 18 36 96 31 143 75 168
161 16 56 15 72 -10 158 -5 16 3 25 35 45 110 67 148 234 78 346 -19 31 -66
77 -102 99 -15 9 -15 15 -2 65 9 31 12 70 9 90 -16 84 -81 164 -150 182 -41
11 -42 13 -46 59 -9 90 -84 165 -176 176 -46 5 -52 8 -57 35 -9 39 -60 96
-103 113 -43 18 -117 19 -157 1z m135 -59 c33 -17 70 -73 70 -107 0 -38 21
-53 63 -45 89 17 176 -69 164 -160 -7 -50 4 -65 49 -65 39 0 91 -34 122 -80
31 -46 28 -130 -8 -179 -28 -41 -21 -57 34 -76 75 -26 126 -100 126 -182 0
-85 -47 -150 -134 -184 -22 -9 -42 -23 -44 -32 -2 -8 8 -32 22 -52 66 -97 2
-233 -117 -248 -21 -3 -41 -8 -44 -11 -3 -3 -6 -32 -7 -64 -2 -98 -49 -146
-148 -149 -71 -2 -78 -6 -78 -45 0 -122 -178 -163 -237 -55 -16 29 -18 68 -20
370 l-2 337 65 0 64 0 0 -180 c0 -153 -2 -182 -15 -187 -20 -7 -45 -55 -45
-86 0 -30 35 -75 68 -88 32 -12 87 5 107 34 8 12 15 39 15 60 0 30 -7 45 -30
67 l-30 28 0 176 0 176 130 0 130 0 0 -65 c0 -55 -3 -66 -21 -75 -27 -15 -49
-68 -42 -103 7 -36 57 -77 93 -77 34 0 85 41 94 75 8 32 -16 90 -43 105 -19
10 -21 20 -21 98 0 55 -4 92 -12 100 -9 9 -80 12 -259 12 l-246 0 -1 80 -1 80
194 0 193 0 30 -30 c54 -54 139 -36 162 34 13 41 2 75 -36 105 -40 32 -80 27
-120 -13 l-35 -35 -192 2 -192 2 0 80 0 80 155 3 c108 2 157 6 162 15 5 6 7
41 6 77 -2 61 0 67 30 97 24 24 32 40 32 68 0 51 -44 95 -95 95 -27 0 -44 -8
-66 -29 -40 -41 -40 -91 1 -133 25 -25 30 -37 30 -79 l0 -49 -130 0 -129 0 0
196 c0 107 5 209 10 226 22 79 110 120 179 85z m131 -298 c8 -17 8 -24 -3 -36
-27 -27 -71 14 -47 43 17 20 37 17 50 -7z m197 -466 c3 -22 -28 -40 -48 -28
-12 7 -13 38 -3 49 15 14 48 1 51 -21z m-3 -483 c0 -20 -5 -25 -25 -25 -28 0
-41 32 -18 46 23 15 43 5 43 -21z m-319 -215 c8 -19 -13 -45 -36 -45 -20 0
-32 23 -24 45 8 20 53 19 60 0z"/>
<path d="M2747 1683 c-4 -3 -7 -17 -7 -30 0 -20 5 -23 35 -23 32 0 35 2 35 30
0 26 -4 30 -28 30 -16 0 -32 -3 -35 -7z"/>
<path d="M3000 1300 c0 -26 3 -30 29 -30 28 0 41 14 41 46 0 9 -11 14 -35 14
-32 0 -35 -2 -35 -30z"/>
</g>
</svg>
