<?xml version="1.0" standalone="no"?>
<!DOCTYPE svg PUBLIC "-//W3C//DTD SVG 20010904//EN"
 "http://www.w3.org/TR/2001/REC-SVG-20010904/DTD/svg10.dtd">
<svg version="1.0" xmlns="http://www.w3.org/2000/svg"
 width="2286.000000pt" height="488.000000pt" viewBox="0 0 2286.000000 488.000000"
 preserveAspectRatio="xMidYMid meet">

<g transform="translate(0.000000,488.000000) scale(0.100000,-0.100000)"
fill="#000000" stroke="none">
<path d="M992 4139 c-20 -6 -40 -22 -52 -42 -20 -31 -20 -61 -20 -1655 0
-1767 -4 -1661 56 -1692 40 -22 4007 -23 4047 -1 59 31 57 6 57 875 l0 796
540 0 540 0 0 -46 c0 -34 3 -45 13 -41 8 3 82 27 165 53 84 26 152 50 152 54
0 3 -69 28 -152 55 -84 27 -159 51 -165 53 -9 3 -13 -10 -13 -42 l0 -46 -540
0 -540 0 0 796 c0 687 -2 800 -15 828 -32 66 141 61 -2050 63 -1237 1 -2002
-2 -2023 -8z m4023 -54 l25 -24 0 -1619 c0 -1580 0 -1620 -19 -1643 l-19 -24
-2000 0 c-1953 0 -2000 0 -2021 19 l-21 19 0 1628 0 1628 26 20 27 21 1989 0
1989 0 24 -25z"/>
<path d="M2476 3558 c-10 -51 -20 -105 -23 -120 -4 -21 -2 -28 11 -28 9 0 16
5 16 11 0 8 4 8 14 0 24 -20 77 -9 99 20 27 37 34 110 12 132 -19 20 -66 22
-84 5 -10 -11 -11 -5 -5 30 5 33 3 42 -8 42 -10 0 -19 -27 -32 -92z m105 -9
c25 -48 -17 -128 -60 -114 -43 13 -36 99 10 122 32 17 37 16 50 -8z"/>
<path d="M2813 3639 c-22 -6 -35 -17 -39 -33 -10 -41 -1 -58 41 -78 67 -33 70
-35 74 -53 8 -42 -73 -61 -109 -25 -24 24 -40 26 -40 6 0 -24 42 -46 88 -46
53 0 80 13 93 47 14 38 -11 70 -66 84 -48 12 -66 39 -45 64 16 19 74 19 90 0
16 -19 40 -19 40 0 0 29 -75 49 -127 34z"/>
<path d="M3650 3640 c0 -5 7 -10 15 -10 8 0 15 5 15 10 0 6 -7 10 -15 10 -8 0
-15 -4 -15 -10z"/>
<path d="M1976 3603 c3 -21 8 -72 12 -113 6 -65 10 -75 27 -78 14 -2 24 7 34
30 8 18 28 62 45 98 31 64 31 65 33 30 15 -204 25 -208 106 -45 48 97 54 115
39 115 -14 0 -30 -26 -63 -97 l-44 -98 -7 50 c-3 28 -7 71 -7 98 -1 39 -4 47
-20 47 -13 0 -29 -25 -62 -97 l-44 -98 -7 45 c-3 25 -7 69 -7 98 -1 44 -4 52
-20 52 -16 0 -18 -6 -15 -37z"/>
<path d="M2299 3561 c-23 -24 -29 -38 -29 -75 0 -27 6 -51 16 -60 22 -23 87
-21 108 3 22 24 3 39 -20 17 -28 -29 -74 -16 -74 20 0 21 4 23 63 26 56 3 62
5 65 26 10 70 -74 98 -129 43z m82 -1 c38 -21 23 -40 -33 -40 l-51 0 23 25
c26 28 33 30 61 15z"/>
<path d="M2995 3567 c-34 -29 -45 -96 -21 -132 12 -19 25 -25 51 -25 39 0 83
36 65 54 -7 7 -17 3 -30 -12 -12 -12 -26 -22 -33 -22 -40 0 -50 71 -16 114 23
30 41 33 63 11 19 -19 36 -19 36 0 0 38 -76 46 -115 12z"/>
<path d="M3139 3500 c-14 -81 -14 -91 -1 -88 10 2 19 23 26 58 14 66 21 79 52
90 13 5 24 14 24 20 0 15 -27 12 -44 -6 -15 -14 -16 -14 -16 0 0 9 -6 16 -13
16 -8 0 -18 -31 -28 -90z"/>
<path d="M3278 3568 c-20 -20 -21 -23 -5 -26 9 -2 24 4 33 12 18 19 20 19 45
6 30 -17 24 -40 -11 -40 -17 0 -46 -7 -65 -14 -28 -12 -35 -20 -35 -43 0 -36
16 -53 50 -53 14 0 31 5 38 12 9 9 15 9 24 0 13 -13 48 -16 48 -4 0 4 -4 12
-9 18 -6 5 -6 30 0 63 9 45 8 56 -7 72 -24 27 -78 25 -106 -3z m77 -90 c-15
-49 -77 -64 -83 -20 -4 24 22 40 66 41 20 1 22 -3 17 -21z"/>
<path d="M3436 3493 c-10 -54 -20 -110 -23 -125 -4 -21 -2 -28 10 -28 11 0 18
14 23 45 6 44 16 56 29 35 9 -14 57 -12 77 4 39 29 51 121 20 149 -22 20 -53
22 -71 5 -11 -10 -14 -10 -18 0 -3 6 -10 12 -17 12 -8 0 -19 -35 -30 -97z
m112 65 c26 -26 8 -112 -26 -122 -36 -12 -52 3 -52 48 1 42 14 68 40 79 22 8
25 8 38 -5z"/>
<path d="M3630 3523 c-6 -38 -14 -78 -17 -90 -4 -17 -1 -23 11 -23 9 0 16 2
16 4 0 2 7 40 15 83 18 95 18 93 1 93 -9 0 -18 -22 -26 -67z"/>
<path d="M3715 3578 c-2 -7 -11 -48 -19 -91 -12 -70 -12 -78 2 -75 10 2 20 24
30 66 10 46 20 67 38 79 22 14 27 14 40 2 11 -12 12 -25 4 -68 -13 -70 -13
-81 4 -81 9 0 17 25 26 76 12 72 12 78 -5 90 -23 17 -57 18 -74 2 -11 -10 -14
-10 -18 0 -3 6 -9 12 -14 12 -5 0 -12 -6 -14 -12z"/>
<path d="M3909 3571 c-18 -14 -23 -31 -27 -79 -4 -58 -3 -62 22 -73 20 -9 32
-9 51 -1 34 16 34 15 28 -8 -11 -42 -64 -58 -85 -26 -10 16 -29 -6 -19 -22 4
-7 23 -15 43 -18 58 -10 83 22 107 138 12 54 21 100 21 103 0 11 -29 4 -33 -7
-4 -10 -7 -10 -18 0 -19 18 -63 15 -90 -7z m75 -7 c31 -12 13 -115 -22 -129
-8 -3 -23 -3 -33 0 -41 13 -11 134 33 135 3 0 13 -3 22 -6z"/>
<path d="M2855 2900 c-67 -34 -87 -76 -93 -202 -3 -59 -7 -108 -10 -108 -2 0
-33 27 -68 60 -79 73 -116 93 -172 92 -57 0 -117 -37 -187 -114 -65 -72 -75
-92 -75 -152 0 -51 26 -95 106 -177 30 -30 51 -58 48 -62 -4 -4 -53 -7 -109
-7 -115 0 -148 -14 -192 -79 -21 -31 -23 -45 -23 -160 0 -119 1 -128 26 -164
38 -57 94 -77 211 -77 l95 0 -70 -77 c-83 -93 -92 -109 -92 -162 0 -59 12 -83
85 -160 135 -143 219 -145 355 -7 30 31 58 56 62 56 4 0 8 -35 8 -77 1 -148
23 -196 105 -234 31 -14 64 -19 145 -18 98 0 108 2 144 27 70 48 79 69 84 187
3 60 9 105 15 105 5 0 40 -29 78 -65 125 -118 205 -113 329 22 80 88 93 114
88 174 -5 49 -13 62 -91 153 -27 30 -46 60 -42 66 3 5 36 10 73 10 91 1 139
13 174 47 51 49 58 71 58 201 0 116 -1 120 -30 160 -43 60 -73 72 -178 72
-117 0 -127 11 -66 71 65 63 92 108 98 159 7 66 -19 114 -107 197 -126 119
-181 120 -309 3 -42 -39 -79 -67 -81 -63 -3 5 -8 55 -11 113 -8 119 -23 151
-87 188 -33 19 -53 22 -146 22 -88 0 -115 -4 -148 -20z m245 -136 c6 -14 10
-72 10 -130 0 -89 3 -107 18 -120 23 -19 130 -64 153 -64 10 0 58 38 108 86
l92 85 38 -31 c45 -35 101 -96 101 -110 0 -6 -36 -49 -80 -96 -44 -48 -80 -95
-80 -105 0 -10 15 -51 34 -92 39 -87 39 -87 183 -87 120 0 116 5 111 -125 l-3
-80 -115 -6 c-63 -3 -122 -9 -131 -13 -18 -8 -79 -137 -79 -168 0 -11 36 -57
80 -103 44 -46 80 -89 80 -95 0 -6 -25 -38 -57 -71 -76 -80 -88 -79 -183 16
-40 41 -82 78 -93 81 -29 9 -167 -55 -172 -80 -2 -12 -6 -69 -8 -127 -2 -58
-7 -111 -11 -117 -5 -8 -38 -12 -96 -12 -110 0 -110 0 -110 145 0 58 -4 115
-10 125 -13 24 -114 70 -154 70 -26 0 -46 -14 -116 -85 -47 -47 -88 -85 -93
-85 -14 0 -137 122 -137 136 0 7 38 52 85 101 47 48 88 98 91 110 4 13 -4 43
-19 75 -44 93 -37 90 -188 97 l-134 6 -3 94 c-2 69 1 97 10 103 7 4 61 8 120
8 59 0 118 4 133 10 18 7 35 29 55 72 17 35 30 71 30 81 0 10 -40 60 -90 111
-49 51 -90 100 -90 109 0 8 30 42 66 76 l66 60 26 -20 c15 -11 59 -51 97 -89
40 -40 79 -70 90 -70 32 0 142 56 154 79 6 11 11 71 11 133 0 75 4 118 12 126
8 8 45 12 100 12 86 0 89 -1 98 -26z"/>
<path d="M2910 2285 c-93 -31 -175 -115 -200 -203 -39 -141 29 -297 157 -362
67 -35 197 -36 260 -2 67 35 110 79 143 144 95 192 -38 421 -252 434 -39 2
-80 -2 -108 -11z m171 -140 c93 -49 117 -181 47 -261 -80 -91 -214 -81 -273
20 -89 152 70 321 226 241z"/>
<path d="M6574 4136 c-70 -31 -64 116 -64 -1697 0 -1633 0 -1636 20 -1662 12
-15 38 -31 58 -37 57 -15 3956 -13 4001 3 19 7 44 25 55 40 21 28 21 34 24
833 l2 804 470 0 470 0 0 -46 c0 -33 4 -45 13 -42 50 12 327 104 327 109 0 5
-318 109 -334 109 -3 0 -6 -20 -6 -45 l0 -45 -470 0 -470 0 -2 810 -3 810 -33
32 -32 33 -1998 2 c-1668 2 -2002 0 -2028 -11z m4037 -55 c19 -23 19 -63 19
-1632 0 -1157 -3 -1615 -11 -1632 -6 -14 -22 -30 -36 -36 -35 -16 -3962 -16
-3997 0 -14 7 -30 25 -36 42 -14 42 -14 3192 1 3234 5 17 20 35 32 41 15 8
622 10 2015 9 l1994 -2 19 -24z"/>
<path d="M9320 3656 c0 -2 -9 -48 -20 -101 -23 -114 -25 -135 -7 -135 8 0 19
35 30 99 10 54 21 108 24 120 4 15 1 21 -11 21 -9 0 -16 -2 -16 -4z"/>
<path d="M9390 3650 c0 -5 7 -10 15 -10 8 0 15 5 15 10 0 6 -7 10 -15 10 -8 0
-15 -4 -15 -10z"/>
<path d="M7417 3559 c-10 -52 -21 -104 -24 -116 -5 -22 -2 -23 56 -23 105 0
161 44 161 128 0 29 -7 49 -24 68 -20 24 -33 28 -88 32 l-64 4 -17 -93z m134
48 c38 -24 39 -89 1 -127 -26 -26 -105 -50 -119 -36 -3 3 2 46 12 96 l18 92
35 -7 c19 -3 43 -11 53 -18z"/>
<path d="M8314 3568 c10 -126 16 -148 36 -148 12 0 31 29 62 96 l45 96 8 -96
c6 -85 9 -96 26 -96 20 0 34 23 94 156 26 57 30 74 19 74 -9 0 -33 -38 -62
-97 -28 -60 -47 -90 -49 -78 -1 11 -5 55 -8 98 -6 67 -9 77 -26 77 -10 0 -19
-4 -19 -9 0 -15 -83 -186 -86 -176 -1 6 -6 49 -9 98 -5 69 -10 87 -22 87 -13
0 -15 -12 -9 -82z"/>
<path d="M7865 3620 c-3 -11 -13 -20 -21 -20 -15 0 -19 -16 -6 -24 5 -3 4 -31
-2 -64 -5 -32 -6 -66 -3 -75 7 -18 57 -24 57 -7 0 6 -7 10 -16 10 -14 0 -16 8
-10 54 8 68 14 86 32 86 8 0 14 5 14 10 0 6 -6 10 -14 10 -9 0 -12 7 -9 20 3
11 1 20 -5 20 -6 0 -14 -9 -17 -20z"/>
<path d="M7688 3593 c-17 -4 -32 -32 -23 -41 3 -3 18 1 33 10 19 12 32 14 45
7 32 -19 19 -36 -33 -43 -61 -8 -90 -41 -72 -81 9 -19 19 -25 45 -25 18 0 39
6 46 13 11 10 14 10 18 0 6 -15 53 -18 53 -3 0 6 -5 10 -11 10 -7 0 -8 20 -4
63 6 52 4 67 -10 80 -16 16 -50 20 -87 10z m62 -102 c0 -38 -71 -68 -84 -35
-8 20 0 33 28 44 36 15 56 11 56 -9z"/>
<path d="M7959 3581 c-33 -26 -16 -39 22 -17 24 14 33 15 44 6 28 -23 16 -37
-35 -44 -61 -8 -90 -41 -72 -81 14 -30 65 -34 94 -8 17 15 18 15 18 0 0 -11 8
-17 25 -17 14 0 25 5 25 10 0 6 -5 10 -11 10 -7 0 -8 23 -3 69 6 63 5 70 -14
80 -31 16 -67 13 -93 -8z m69 -93 c-4 -32 -51 -57 -72 -39 -20 17 -5 48 26 54
45 9 49 7 46 -15z"/>
<path d="M8635 3588 c-5 -13 -35 -155 -35 -164 0 -2 6 -4 14 -4 16 0 20 11 31
75 8 46 20 64 52 76 13 5 23 13 23 19 0 17 -38 11 -49 -7 -10 -17 -10 -17 -11
0 0 20 -18 23 -25 5z"/>
<path d="M8762 3584 c-27 -19 -28 -34 -2 -34 11 0 20 4 20 9 0 13 27 21 45 15
24 -10 19 -44 -7 -45 -40 -1 -91 -23 -98 -44 -13 -35 6 -65 39 -65 16 0 36 3
45 6 27 10 18 22 -16 20 -29 -1 -33 2 -33 23 0 19 7 27 30 33 42 11 59 4 45
-22 -8 -14 -8 -26 0 -40 11 -20 50 -28 50 -10 0 6 -4 10 -10 10 -5 0 -7 26 -3
66 5 58 4 69 -12 80 -25 18 -65 18 -93 -2z"/>
<path d="M8920 3533 c-6 -38 -14 -78 -17 -90 -4 -17 -1 -23 11 -23 9 0 18 11
21 28 21 98 47 138 82 125 12 -5 14 -18 10 -63 -4 -31 -9 -65 -13 -74 -5 -14
-3 -17 12 -14 15 2 22 18 32 73 12 67 12 71 -9 88 -26 21 -38 21 -67 1 -20
-14 -22 -14 -22 0 0 9 -6 16 -14 16 -9 0 -18 -22 -26 -67z"/>
<path d="M9143 3590 c-42 -17 -65 -105 -38 -146 17 -27 62 -33 84 -11 10 10
12 7 9 -13 -2 -14 -14 -31 -30 -39 -24 -14 -28 -14 -45 1 -11 11 -24 14 -32 9
-19 -12 25 -41 62 -41 49 0 72 35 92 143 18 95 15 128 -8 96 -10 -14 -14 -14
-25 -3 -14 16 -37 17 -69 4z m62 -27 c33 -32 -2 -123 -47 -123 -39 0 -40 99
-2 127 23 17 29 16 49 -4z"/>
<path d="M9370 3533 c-6 -38 -14 -78 -17 -90 -4 -17 -1 -23 11 -23 9 0 16 2
16 4 0 2 7 40 15 83 18 95 18 93 1 93 -9 0 -18 -22 -26 -67z"/>
<path d="M9455 3588 c-2 -7 -11 -48 -19 -91 -13 -71 -12 -78 2 -75 11 2 20 21
27 53 15 73 31 97 63 93 30 -3 30 -6 17 -95 -6 -43 -5 -53 7 -53 10 0 19 21
27 71 12 64 11 72 -5 90 -20 23 -30 23 -66 5 -24 -13 -28 -13 -28 0 0 17 -19
19 -25 2z"/>
<path d="M9667 3593 c-39 -10 -65 -131 -35 -161 15 -15 53 -16 78 -2 18 9 18
8 9 -19 -13 -36 -53 -49 -79 -26 -14 12 -20 13 -26 4 -10 -16 23 -39 57 -39
49 0 76 36 94 125 9 44 19 90 22 103 4 15 1 22 -10 22 -8 0 -17 -5 -19 -11 -3
-9 -9 -9 -25 0 -22 11 -35 12 -66 4z m73 -63 c0 -63 -32 -100 -74 -84 -32 12
-13 118 23 127 29 6 51 -12 51 -43z"/>
<path d="M8290 2939 c-238 -21 -421 -90 -519 -194 -130 -137 -69 -276 169
-383 342 -154 931 -100 1137 104 200 199 -45 426 -511 473 -120 12 -149 12
-276 0z"/>
<path d="M7701 2365 c0 -74 5 -134 13 -158 52 -146 269 -249 584 -279 365 -35
748 83 831 255 18 37 21 62 21 173 -1 117 -2 126 -14 98 -48 -109 -201 -197
-429 -246 -134 -28 -418 -31 -542 -4 -228 49 -377 127 -435 230 l-30 51 1
-120z"/>
<path d="M7702 2000 c3 -126 5 -138 30 -182 34 -56 81 -95 177 -143 125 -63
338 -105 528 -105 l79 0 54 56 c61 62 91 81 135 85 64 5 86 -2 125 -37 l39
-36 73 36 c71 34 75 38 141 139 l67 103 0 109 0 110 -21 -43 c-65 -130 -287
-228 -581 -254 -222 -21 -459 14 -623 92 -109 51 -159 90 -195 152 l-31 53 3
-135z"/>
<path d="M9154 1718 c-108 -161 -201 -297 -205 -302 -5 -5 -49 31 -104 85 -53
52 -105 96 -117 97 -26 5 -118 -83 -118 -113 0 -13 57 -77 158 -178 137 -137
163 -158 191 -159 22 -1 40 7 55 23 13 13 95 130 182 259 87 129 194 288 237
352 92 136 93 146 17 196 -87 56 -74 68 -296 -260z"/>
<path d="M7702 1650 c3 -116 7 -141 26 -177 82 -156 426 -267 772 -249 190 10
185 5 97 95 -79 80 -97 106 -97 140 0 19 -6 21 -70 21 -183 0 -398 43 -521
105 -97 49 -144 87 -180 149 l-30 51 3 -135z"/>
<path d="M12050 4144 c-41 -14 -60 -30 -75 -59 -13 -29 -15 -212 -15 -1645 0
-1768 -4 -1659 58 -1691 23 -12 366 -14 2177 -17 1183 -2 2169 0 2193 3 27 4
55 17 75 35 l32 28 3 811 2 811 365 0 365 0 0 -46 c0 -32 4 -44 13 -41 6 2 81
26 164 53 84 27 153 52 153 55 0 3 -69 27 -152 54 -84 27 -159 51 -165 53 -9
3 -13 -9 -13 -42 l0 -46 -365 0 -365 0 0 796 c0 687 -2 800 -15 828 -32 66
160 61 -2240 63 -1199 1 -2187 -1 -2195 -3z m4385 -59 l25 -24 0 -1615 c0
-888 -3 -1622 -6 -1631 -18 -47 85 -45 -2224 -45 -2309 0 -2206 -2 -2224 45
-3 9 -6 743 -6 1631 l0 1615 25 24 24 25 2181 0 2181 0 24 -25z"/>
<path d="M13570 3603 c-7 -32 -18 -86 -25 -121 -11 -56 -11 -63 3 -60 10 2 20
22 27 53 17 76 32 97 63 93 30 -3 32 -14 18 -100 -7 -39 -6 -48 6 -48 10 0 19
21 28 68 19 104 -4 131 -83 97 -12 -5 -16 -3 -13 6 15 48 16 69 2 69 -10 0
-19 -19 -26 -57z"/>
<path d="M13765 3650 c-3 -5 1 -10 9 -10 8 0 18 5 21 10 3 6 -1 10 -9 10 -8 0
-18 -4 -21 -10z"/>
<path d="M15170 3650 c0 -5 7 -10 15 -10 8 0 15 5 15 10 0 6 -7 10 -15 10 -8
0 -15 -4 -15 -10z"/>
<path d="M12926 3548 c-10 -57 -21 -109 -23 -115 -3 -7 2 -13 10 -13 15 0 27
39 43 141 9 53 17 36 34 -63 8 -50 17 -78 25 -78 7 0 35 38 61 85 26 47 49 83
52 81 2 -3 -3 -39 -12 -81 -19 -93 -19 -85 -2 -85 9 0 20 34 35 108 26 131 26
124 -1 120 -17 -2 -36 -27 -74 -96 -57 -104 -52 -105 -75 26 -11 63 -15 72
-33 72 -19 0 -23 -11 -40 -102z"/>
<path d="M14296 3563 c-9 -49 -19 -100 -22 -115 l-6 -28 76 0 c44 0 76 4 76
10 0 6 -25 10 -55 10 -64 0 -63 -2 -40 105 18 87 19 105 1 105 -9 0 -19 -28
-30 -87z"/>
<path d="M13233 3590 c-24 -10 -32 -40 -10 -40 6 0 20 7 31 15 13 10 24 11 37
4 35 -18 22 -36 -31 -43 -61 -8 -90 -41 -72 -81 14 -30 65 -34 94 -8 17 15 18
15 18 0 0 -11 8 -17 25 -17 14 0 25 5 25 10 0 6 -5 10 -11 10 -8 0 -9 19 -5
64 6 52 4 66 -9 80 -18 17 -57 20 -92 6z m67 -95 c0 -21 -36 -55 -59 -55 -20
0 -35 25 -25 42 16 25 84 36 84 13z"/>
<path d="M13427 3592 c-27 -11 -57 -63 -57 -98 0 -70 73 -102 120 -52 26 28 6
44 -21 17 -25 -25 -46 -24 -60 2 -15 29 -3 85 24 104 28 20 32 19 56 -7 19
-20 21 -20 27 -3 13 33 -41 55 -89 37z"/>
<path d="M13755 3588 c-2 -7 -9 -40 -15 -73 -6 -33 -14 -68 -16 -77 -4 -12 0
-18 10 -18 9 0 18 10 20 23 16 73 26 130 26 142 0 18 -19 20 -25 3z"/>
<path d="M13826 3583 c-7 -25 -26 -134 -26 -150 0 -7 6 -13 14 -13 9 0 16 17
21 47 11 73 31 105 63 101 30 -3 32 -14 18 -100 -6 -38 -4 -48 7 -48 14 0 37
85 37 136 0 32 -33 48 -70 35 -18 -6 -32 -6 -35 0 -10 14 -23 11 -29 -8z"/>
<path d="M14040 3587 c-31 -16 -50 -52 -50 -99 0 -47 21 -68 69 -68 38 0 83
31 63 44 -5 3 -15 -1 -22 -9 -25 -31 -80 -12 -80 27 0 15 9 18 65 18 l65 0 0
30 c0 57 -54 85 -110 57z m80 -47 c0 -17 -7 -20 -46 -20 -38 0 -45 3 -42 17 8
44 88 47 88 3z"/>
<path d="M14514 3590 c-12 -5 -29 -19 -38 -32 -21 -29 -21 -102 0 -122 23 -23
87 -21 109 4 21 23 14 25 -31 8 -37 -13 -64 1 -64 33 0 17 8 19 66 19 l67 0
-6 37 c-10 57 -47 76 -103 53z m76 -50 c0 -17 -7 -20 -46 -20 -38 0 -45 3 -42
17 8 44 88 47 88 3z"/>
<path d="M14689 3581 c-33 -26 -16 -39 22 -17 24 14 33 15 44 6 28 -23 16 -37
-35 -44 -38 -5 -54 -13 -66 -32 -38 -58 35 -105 89 -57 15 15 17 15 17 0 0
-11 8 -17 25 -17 14 0 25 5 25 10 0 6 -5 10 -11 10 -7 0 -8 23 -3 69 6 63 5
70 -14 80 -31 16 -67 13 -93 -8z m69 -93 c-4 -31 -51 -56 -71 -39 -28 23 5 59
56 60 13 1 18 -5 15 -21z"/>
<path d="M14851 3548 c-24 -121 -24 -128 -8 -128 11 0 18 14 23 48 9 63 30
102 54 102 11 0 20 7 20 15 0 18 -21 20 -38 3 -9 -9 -12 -9 -12 0 0 7 -6 12
-14 12 -10 0 -18 -18 -25 -52z"/>
<path d="M14956 3518 c-19 -100 -19 -98 -2 -98 10 0 19 20 27 60 12 64 45 105
76 93 12 -5 14 -16 9 -57 -3 -28 -9 -61 -12 -73 -5 -17 -2 -23 9 -23 19 0 27
21 34 96 5 57 4 63 -16 74 -16 8 -31 9 -52 1 -18 -6 -29 -6 -29 0 0 5 -6 9
-14 9 -9 0 -19 -28 -30 -82z"/>
<path d="M15151 3550 c-23 -106 -24 -130 -9 -130 11 0 18 21 27 73 7 39 15 80
17 90 4 11 0 17 -9 17 -10 0 -19 -17 -26 -50z"/>
<path d="M15221 3533 c-7 -38 -15 -78 -18 -90 -4 -17 -1 -23 11 -23 9 0 18 11
21 25 3 14 8 37 11 53 9 45 32 72 61 72 26 0 26 -1 20 -58 -4 -32 -9 -67 -13
-76 -5 -14 -3 -17 11 -14 15 2 22 19 32 73 13 68 12 71 -9 88 -23 19 -66 16
-80 -6 -5 -8 -8 -6 -8 6 0 9 -6 17 -13 17 -9 0 -18 -24 -26 -67z"/>
<path d="M15443 3590 c-42 -17 -65 -105 -38 -146 17 -27 62 -33 84 -11 10 10
12 7 9 -13 -2 -14 -14 -31 -30 -39 -24 -14 -28 -14 -45 1 -11 11 -24 14 -32 9
-19 -12 25 -41 62 -41 49 0 72 35 92 143 18 95 15 128 -8 96 -10 -14 -14 -14
-25 -3 -14 16 -37 17 -69 4z m62 -27 c33 -32 -2 -123 -47 -123 -39 0 -40 99
-2 127 23 17 29 16 49 -4z"/>
<path d="M13914 2981 c-46 -21 -78 -57 -94 -107 -10 -29 -16 -34 -44 -34 -84
0 -180 -90 -192 -179 -6 -46 -8 -49 -45 -60 -51 -15 -103 -61 -128 -115 -24
-48 -27 -134 -7 -181 12 -28 11 -30 -33 -60 -127 -85 -149 -270 -44 -385 18
-21 46 -43 62 -50 29 -11 29 -12 15 -46 -19 -46 -17 -131 5 -179 24 -53 75
-101 124 -118 38 -12 42 -17 52 -63 15 -65 42 -109 85 -139 33 -23 130 -50
130 -36 0 3 11 -17 24 -44 40 -86 113 -130 200 -119 46 5 72 18 109 53 62 57
59 6 59 913 0 942 6 873 -86 936 -39 26 -58 32 -100 32 -28 0 -69 -9 -92 -19z
m145 -59 c65 -35 71 -61 71 -294 l0 -208 -80 0 -80 0 0 49 c0 42 5 54 30 79
41 42 41 92 1 133 -22 21 -39 29 -66 29 -51 0 -95 -44 -95 -95 0 -28 7 -44 30
-65 26 -24 30 -35 30 -79 l0 -51 -81 0 c-77 0 -81 1 -106 30 -20 24 -32 30
-66 30 -85 0 -129 -93 -73 -153 45 -48 116 -44 151 9 15 24 16 24 210 24 l195
0 0 -85 0 -84 -237 -1 c-130 0 -238 -2 -240 -4 -2 -2 -5 -52 -6 -111 -2 -82
-6 -109 -18 -118 -53 -41 -62 -100 -23 -146 34 -41 97 -44 138 -6 38 35 37 96
-4 137 -28 28 -30 34 -30 109 l0 79 210 0 210 0 0 -80 0 -79 -142 -3 -143 -3
-3 -127 c-3 -126 -3 -127 -32 -157 -42 -42 -42 -101 -1 -140 26 -24 30 -37 33
-87 l3 -59 143 -3 142 -3 0 -80 c0 -120 -41 -179 -124 -179 -73 0 -123 44
-135 117 l-6 38 -65 6 c-36 3 -75 12 -88 20 -41 25 -64 74 -63 134 0 59 -4 64
-52 72 -79 12 -134 66 -144 142 -4 31 1 53 21 94 14 30 26 59 26 66 0 6 -24
22 -53 35 -91 40 -136 118 -123 209 10 68 42 107 114 142 68 33 75 48 41 94
-64 87 -7 229 100 247 72 12 73 13 69 52 -13 110 59 185 171 179 l45 -2 7 42
c18 103 104 150 188 105z m-95 -295 c13 -21 -15 -53 -38 -44 -26 10 -31 38
-11 54 22 16 35 13 49 -10z m-290 -222 c9 -24 -4 -45 -29 -45 -27 0 -40 26
-24 46 15 18 45 18 53 -1z m31 -515 c11 -18 -6 -50 -26 -50 -22 0 -34 22 -25
45 6 17 42 20 51 5z m425 -215 l0 -225 -115 0 -115 0 0 33 c0 25 7 39 29 55
52 38 50 123 -5 152 -23 13 -24 18 -24 112 l0 98 115 0 115 0 0 -225z m-230
-66 c0 -23 -15 -32 -40 -24 -25 8 -26 41 -3 54 22 12 43 -3 43 -30z"/>
<path d="M13418 2063 c-23 -4 -28 -9 -28 -34 0 -26 3 -29 30 -29 28 0 30 3 30
35 0 19 -1 34 -2 34 -2 -1 -15 -4 -30 -6z"/>
<path d="M13580 1645 c0 -32 2 -35 30 -35 28 0 30 3 30 35 0 32 -2 35 -30 35
-28 0 -30 -3 -30 -35z"/>
<path d="M14375 2986 c-45 -20 -90 -68 -103 -113 -9 -30 -12 -252 -12 -850 l0
-809 23 -44 c71 -143 272 -139 342 5 25 51 30 55 62 55 59 0 130 46 160 104 8
16 18 49 22 73 5 41 10 46 43 58 57 19 87 42 118 91 42 67 46 115 16 219 -5
16 3 26 35 45 110 67 148 234 78 346 -19 31 -66 77 -102 99 -15 9 -15 15 -2
65 9 31 12 70 9 90 -16 85 -81 164 -151 183 -41 11 -43 13 -43 48 0 87 -84
174 -177 186 -47 5 -53 8 -58 35 -9 39 -61 97 -102 114 -41 18 -119 17 -158 0z
m135 -59 c33 -17 70 -73 70 -107 0 -38 21 -53 63 -45 25 5 48 1 81 -14 38 -17
51 -29 67 -67 15 -32 19 -58 15 -82 -7 -44 7 -62 49 -62 39 0 92 -34 123 -80
31 -46 28 -130 -8 -179 -28 -41 -21 -57 34 -76 75 -26 126 -100 126 -182 0
-85 -47 -150 -134 -184 -22 -9 -42 -23 -44 -32 -2 -8 8 -32 22 -52 66 -97 2
-233 -117 -248 -21 -3 -41 -8 -44 -11 -3 -3 -6 -32 -7 -64 -2 -98 -49 -146
-148 -149 -71 -2 -78 -6 -78 -45 0 -122 -179 -164 -237 -55 -16 28 -18 70 -20
370 l-3 337 65 0 65 0 0 -180 c0 -153 -2 -182 -15 -187 -20 -7 -45 -55 -45
-86 0 -30 35 -75 68 -88 32 -12 87 5 107 34 8 12 15 39 15 60 0 30 -7 45 -30
67 l-30 28 0 176 0 176 130 0 130 0 0 -65 c0 -55 -3 -66 -21 -75 -27 -15 -51
-73 -43 -105 9 -34 60 -75 94 -75 34 0 85 41 94 75 8 32 -16 90 -43 105 -19
10 -21 20 -21 98 0 55 -4 92 -12 100 -9 9 -80 12 -258 12 l-246 0 -1 80 -2 80
196 0 195 0 28 -30 c51 -54 137 -36 160 34 13 41 2 75 -36 105 -39 31 -75 27
-123 -13 l-42 -35 -187 2 -187 2 0 80 0 80 155 3 c108 2 157 6 162 15 5 6 7
41 6 77 -2 61 0 67 30 97 24 24 32 40 32 68 0 51 -44 95 -95 95 -27 0 -44 -8
-66 -29 -40 -41 -40 -91 1 -133 25 -25 30 -37 30 -79 l0 -49 -130 0 -129 0 0
189 c0 104 4 206 9 226 19 83 108 129 180 92z m130 -298 c9 -15 8 -24 -1 -35
-15 -18 -24 -18 -43 2 -12 12 -13 20 -6 35 14 25 36 24 50 -2z m195 -469 c0
-18 -6 -26 -23 -28 -24 -4 -38 18 -28 44 3 9 15 14 28 12 17 -2 23 -10 23 -28z
m0 -480 c0 -20 -5 -25 -25 -25 -28 0 -41 32 -18 46 23 15 43 5 43 -21z m-317
-224 c4 -20 -13 -36 -39 -36 -20 0 -31 23 -22 46 8 22 57 14 61 -10z"/>
<path d="M14717 2413 c-4 -3 -7 -17 -7 -30 0 -20 5 -23 35 -23 32 0 35 2 35
30 0 26 -4 30 -28 30 -16 0 -32 -3 -35 -7z"/>
<path d="M14975 2062 c-3 -3 -5 -18 -5 -34 0 -24 4 -28 29 -28 28 0 41 14 41
45 0 12 -55 27 -65 17z"/>
<path d="M17654 4136 c-70 -31 -64 116 -64 -1697 l0 -1637 29 -30 c18 -17 45
-32 68 -35 50 -9 4301 -9 4342 -1 18 4 45 20 62 36 l29 30 0 1637 c0 1818 6
1667 -66 1697 -49 21 -4353 20 -4400 0z m4391 -38 c16 -7 29 -24 36 -47 7 -24
9 -553 7 -1634 l-3 -1599 -28 -24 -28 -24 -2174 0 -2174 0 -28 24 -28 24 0
1622 0 1622 28 24 28 24 2169 0 c1629 0 2175 -3 2195 -12z"/>
<path d="M20067 3663 c-10 -16 -50 -234 -44 -240 4 -3 13 0 21 6 10 8 16 9 21
1 3 -5 20 -10 36 -10 43 0 75 36 84 95 6 44 4 51 -15 67 -26 21 -61 23 -79 6
-10 -11 -11 -4 -6 35 5 31 4 47 -3 47 -6 0 -13 -3 -15 -7z m78 -99 c31 -31 -4
-124 -46 -124 -44 0 -49 95 -6 125 27 19 32 19 52 -1z"/>
<path d="M19543 3618 c3 -18 9 -70 13 -115 6 -73 9 -83 26 -83 14 0 30 23 62
90 23 49 46 87 49 83 4 -3 7 -34 7 -67 0 -144 27 -143 98 3 28 60 52 112 52
115 0 3 -6 6 -14 6 -7 0 -33 -42 -57 -94 -39 -84 -45 -92 -50 -68 -4 15 -7 57
-8 95 -1 58 -3 67 -19 67 -14 0 -31 -26 -65 -97 l-45 -97 -6 45 c-3 24 -7 66
-9 94 -2 40 -6 51 -21 53 -16 3 -18 -1 -13 -30z"/>
<path d="M19878 3583 c-45 -28 -55 -130 -15 -155 35 -22 133 10 108 35 -7 7
-16 6 -29 -6 -31 -28 -64 -20 -76 20 -7 21 -4 22 61 25 l68 3 -2 35 c-3 57
-58 78 -115 43z m73 -13 c38 -21 23 -40 -31 -40 -27 0 -50 2 -50 5 0 8 43 45
53 45 4 0 17 -5 28 -10z"/>
<path d="M18824 3046 c-17 -8 -40 -26 -52 -41 l-22 -28 0 -752 0 -752 22 -28
c42 -53 55 -55 463 -55 206 0 375 -3 375 -7 0 -5 -24 -51 -53 -103 l-52 -95
-66 -5 c-86 -7 -119 -30 -119 -87 0 -45 9 -62 41 -78 23 -13 105 -15 494 -15
l467 0 29 29 c43 44 37 105 -14 133 -12 7 -51 15 -85 18 l-64 5 -43 83 c-23
46 -48 89 -54 95 -6 6 -11 15 -11 19 0 4 174 8 386 8 421 0 427 1 469 58 20
26 20 43 20 777 0 734 0 751 -20 777 -45 61 11 58 -1082 58 -813 -1 -1004 -3
-1029 -14z m1956 -756 l0 -580 -925 0 -925 0 0 580 0 580 925 0 925 0 0 -580z
m-896 -674 c60 -25 68 -103 14 -140 -74 -52 -164 38 -112 112 13 19 39 36 62
41 1 1 18 -5 36 -13z"/>
<path d="M20014 2683 c-21 -4 -45 -51 -264 -518 -29 -60 -67 -142 -86 -181
-19 -39 -34 -74 -34 -78 0 -4 19 -6 42 -4 l42 3 108 230 c59 127 127 273 152
325 60 126 96 209 96 218 0 9 -24 10 -56 5z"/>
<path d="M19450 2533 c-41 -19 -109 -51 -150 -70 -178 -82 -160 -68 -160 -128
0 -50 2 -54 33 -68 147 -68 349 -157 358 -157 6 0 9 17 7 41 -3 48 4 42 -181
128 -64 30 -117 57 -117 60 0 3 21 15 48 25 26 11 93 41 150 67 l102 48 0 46
c0 25 -3 45 -7 45 -5 -1 -42 -17 -83 -37z"/>
<path d="M20170 2521 c0 -45 2 -49 33 -62 17 -7 78 -34 135 -61 57 -26 107
-48 113 -48 32 0 -8 -25 -136 -86 l-145 -69 0 -42 c0 -24 3 -43 6 -43 6 0 92
38 234 103 36 16 84 38 108 48 l43 19 -3 57 -3 57 -170 79 c-240 111 -215 105
-215 48z"/>
</g>
</svg>
