<?xml version="1.0" standalone="no"?>
<!DOCTYPE svg PUBLIC "-//W3C//DTD SVG 20010904//EN"
 "http://www.w3.org/TR/2001/REC-SVG-20010904/DTD/svg10.dtd">
<svg version="1.0" xmlns="http://www.w3.org/2000/svg"
 width="415.000000pt" height="341.000000pt" viewBox="0 0 415.000000 341.000000"
 preserveAspectRatio="xMidYMid meet">

<g transform="translate(0.000000,341.000000) scale(0.100000,-0.100000)"
fill="rgba(255, 255, 255, 0.9)" stroke="none">
<path d="M25 3385 l-25 -24 0 -1651 0 -1651 26 -24 c17 -16 43 -26 77 -30 29
-3 934 -5 2012 -3 2157 3 1988 -2 2020 64 13 28 15 232 15 1642 0 980 -4 1620
-9 1635 -6 14 -20 35 -32 46 l-23 21 -2018 0 -2019 0 -24 -25z m4060 -30 l25
-24 0 -1619 c0 -1580 0 -1620 -19 -1643 l-19 -24 -2000 0 c-1953 0 -2000 0
-2021 19 l-21 19 0 1628 0 1628 26 20 27 21 1989 0 1989 0 24 -25z"/>
<path d="M1546 2828 c-10 -51 -20 -105 -23 -120 -4 -21 -2 -28 11 -28 9 0 16
5 16 11 0 8 4 8 14 0 24 -20 77 -9 99 20 27 37 34 110 12 132 -19 20 -66 22
-84 5 -10 -11 -11 -5 -5 30 5 33 3 42 -8 42 -10 0 -19 -27 -32 -92z m106 -13
c15 -32 -5 -101 -31 -110 -65 -20 -84 90 -20 122 33 17 38 16 51 -12z"/>
<path d="M1883 2909 c-22 -6 -35 -17 -39 -33 -10 -41 -1 -58 41 -78 67 -33 70
-35 74 -53 8 -42 -73 -61 -109 -25 -24 24 -40 26 -40 6 0 -24 42 -46 88 -46
53 0 80 13 93 47 14 38 -11 70 -66 84 -48 12 -66 39 -45 64 16 19 74 19 90 0
16 -19 40 -19 40 0 0 29 -75 49 -127 34z"/>
<path d="M2720 2910 c0 -5 7 -10 15 -10 8 0 15 5 15 10 0 6 -7 10 -15 10 -8 0
-15 -4 -15 -10z"/>
<path d="M1046 2873 c3 -21 8 -72 12 -113 6 -65 10 -75 27 -78 14 -2 24 7 34
30 8 18 28 62 45 98 31 64 31 65 33 30 15 -204 25 -208 106 -45 48 97 54 115
39 115 -14 0 -30 -26 -63 -97 l-44 -98 -7 50 c-3 28 -7 71 -7 98 -1 39 -4 47
-20 47 -13 0 -29 -25 -62 -97 l-44 -98 -7 45 c-3 25 -7 69 -7 98 -1 44 -4 52
-20 52 -16 0 -18 -6 -15 -37z"/>
<path d="M1369 2831 c-23 -24 -29 -38 -29 -75 0 -27 6 -51 16 -60 22 -23 87
-21 108 3 22 24 3 39 -20 17 -28 -29 -74 -16 -74 20 0 21 4 23 63 26 56 3 62
5 65 26 10 70 -74 98 -129 43z m82 -1 c38 -21 23 -40 -33 -40 l-51 0 23 25
c26 28 33 30 61 15z"/>
<path d="M2065 2837 c-34 -29 -45 -96 -21 -132 12 -19 25 -25 51 -25 39 0 83
36 65 54 -7 7 -17 3 -30 -12 -12 -12 -26 -22 -33 -22 -40 0 -50 71 -16 114 23
30 41 33 63 11 19 -19 36 -19 36 0 0 38 -76 46 -115 12z"/>
<path d="M2209 2770 c-14 -81 -14 -91 -1 -88 10 2 19 23 26 58 14 66 21 79 52
90 13 5 24 14 24 20 0 15 -27 12 -44 -6 -15 -14 -16 -14 -16 0 0 9 -6 16 -13
16 -8 0 -18 -31 -28 -90z"/>
<path d="M2348 2838 c-20 -20 -21 -23 -5 -26 9 -2 24 4 33 12 18 19 20 19 45
6 30 -17 24 -40 -11 -40 -17 0 -46 -7 -65 -14 -28 -12 -35 -20 -35 -43 0 -36
16 -53 50 -53 14 0 31 5 38 12 9 9 15 9 24 0 13 -13 48 -16 48 -4 0 4 -4 12
-9 18 -6 5 -6 30 0 63 9 45 8 56 -7 72 -24 27 -78 25 -106 -3z m77 -90 c-15
-49 -77 -64 -83 -20 -4 24 22 40 66 41 20 1 22 -3 17 -21z"/>
<path d="M2506 2763 c-10 -54 -20 -110 -23 -125 -4 -21 -2 -28 10 -28 11 0 18
14 23 45 6 44 16 56 29 35 9 -14 57 -12 78 4 19 15 37 66 37 107 0 47 -57 77
-89 47 -11 -10 -14 -10 -18 0 -3 6 -10 12 -17 12 -8 0 -19 -35 -30 -97z m112
65 c26 -26 8 -112 -26 -122 -36 -12 -52 3 -52 48 1 42 14 68 40 79 22 8 25 8
38 -5z"/>
<path d="M2700 2793 c-6 -38 -14 -78 -17 -90 -4 -17 -1 -23 11 -23 9 0 16 2
16 4 0 2 7 40 15 83 18 95 18 93 1 93 -9 0 -18 -22 -26 -67z"/>
<path d="M2785 2848 c-2 -7 -11 -48 -19 -91 -12 -70 -12 -78 2 -75 10 2 20 24
30 66 10 46 20 67 38 79 22 14 27 14 40 2 11 -12 12 -25 4 -68 -13 -70 -13
-81 4 -81 9 0 17 25 26 76 12 72 12 78 -5 90 -23 17 -57 18 -74 2 -11 -10 -14
-10 -18 0 -3 6 -9 12 -14 12 -5 0 -12 -6 -14 -12z"/>
<path d="M2979 2841 c-18 -14 -23 -31 -27 -79 -4 -58 -3 -62 22 -73 20 -9 32
-9 51 -1 34 16 34 15 28 -8 -11 -42 -64 -58 -85 -26 -10 16 -29 -6 -19 -22 4
-7 23 -15 43 -18 58 -10 83 22 107 138 12 54 21 100 21 103 0 11 -29 4 -33 -7
-4 -10 -7 -10 -18 0 -19 18 -63 15 -90 -7z m75 -7 c31 -12 13 -115 -22 -129
-8 -3 -23 -3 -33 0 -41 13 -11 134 33 135 3 0 13 -3 22 -6z"/>
<path d="M1925 2169 c-68 -35 -87 -75 -93 -201 -3 -59 -7 -108 -10 -108 -2 0
-33 27 -68 60 -79 73 -113 92 -170 92 -59 0 -117 -35 -189 -114 -65 -72 -75
-92 -75 -152 0 -51 26 -95 106 -177 30 -30 51 -58 48 -62 -4 -4 -53 -7 -109
-7 -115 0 -148 -14 -192 -79 -21 -31 -23 -45 -23 -160 0 -119 1 -128 26 -164
38 -57 94 -77 211 -77 l95 0 -70 -77 c-83 -93 -92 -109 -92 -162 0 -59 12 -83
85 -159 80 -86 129 -112 193 -106 56 6 91 27 162 98 30 31 58 56 62 56 4 0 8
-35 8 -77 1 -148 23 -196 105 -234 31 -14 64 -19 145 -18 98 0 108 2 144 27
71 49 80 70 84 187 3 62 8 105 14 105 6 0 41 -29 79 -65 125 -118 205 -113
329 22 80 88 93 114 88 174 -5 49 -13 62 -91 153 -27 30 -46 60 -42 66 3 5 39
10 78 10 90 0 132 12 170 47 50 48 57 72 57 201 0 116 -1 120 -30 160 -43 60
-73 72 -178 72 -117 0 -127 11 -66 71 65 64 94 110 99 159 6 65 -21 114 -108
197 -126 119 -181 120 -309 3 -42 -39 -79 -67 -81 -63 -3 5 -8 55 -11 113 -7
118 -22 151 -87 188 -33 19 -53 22 -146 22 -89 0 -115 -4 -148 -21z m245 -135
c6 -14 10 -31 9 -38 -1 -6 -1 -53 0 -104 1 -76 4 -95 19 -108 23 -19 130 -64
153 -64 10 0 58 38 108 86 l92 85 38 -31 c47 -36 101 -97 101 -111 0 -6 -30
-43 -67 -82 -38 -39 -74 -77 -80 -85 -20 -21 -16 -45 21 -125 39 -87 39 -87
183 -87 120 0 116 5 111 -125 l-3 -80 -115 -6 c-63 -3 -122 -9 -131 -13 -18
-8 -79 -137 -79 -168 0 -11 36 -57 80 -103 44 -46 80 -89 80 -95 0 -6 -25 -38
-57 -71 -76 -80 -88 -79 -183 16 -40 41 -82 78 -93 81 -28 9 -167 -55 -172
-80 -3 -12 -6 -69 -8 -127 -2 -58 -7 -111 -11 -117 -10 -16 -178 -16 -194 0
-8 8 -12 51 -12 126 0 62 -4 122 -10 132 -13 24 -114 70 -154 70 -26 0 -46
-14 -116 -85 -47 -47 -88 -85 -93 -85 -14 0 -137 122 -137 136 0 7 38 52 85
101 47 48 88 98 91 110 4 13 -4 43 -19 75 -44 93 -37 90 -188 97 l-134 6 -3
94 c-2 69 1 97 10 103 7 4 61 8 120 8 59 0 118 4 133 10 18 7 35 29 55 72 17
35 30 71 30 81 0 10 -40 60 -90 111 -49 51 -90 100 -90 109 0 8 30 42 66 76
l66 60 26 -20 c15 -11 59 -51 97 -89 40 -40 79 -70 90 -70 32 0 142 56 154 79
6 11 11 71 11 133 0 75 4 118 12 126 8 8 45 12 100 12 86 0 89 -1 98 -26z"/>
<path d="M1980 1555 c-93 -31 -175 -115 -200 -203 -39 -141 29 -297 157 -362
67 -35 197 -36 260 -2 67 35 110 79 143 144 95 192 -38 421 -252 434 -39 2
-80 -2 -108 -11z m171 -140 c93 -49 117 -181 47 -261 -80 -91 -213 -82 -272
18 -90 154 68 324 225 243z"/>
</g>
</svg>
